<svg width="194" height="49" viewBox="0 0 194 49" fill="none" xmlns="http://www.w3.org/2000/svg">
<path d="M193.5 31.1722C193.5 32.1332 192.944 33.1487 191.705 34.2061C190.47 35.2604 188.618 36.3003 186.186 37.3044C181.327 39.3108 174.266 41.1285 165.503 42.659C147.986 45.7185 123.766 47.6136 97 47.6136C70.2339 47.6136 46.014 45.7185 28.4967 42.659C19.7339 41.1285 12.6726 39.3108 7.81358 37.3044C5.38187 36.3003 3.53047 35.2604 2.29529 34.2061C1.05634 33.1487 0.5 32.1332 0.5 31.1722C0.5 30.2111 1.05634 29.1957 2.29529 28.1382C3.53047 27.084 5.38187 26.0441 7.81358 25.04C12.6726 23.0335 19.7339 21.2158 28.4967 19.6853C46.014 16.6259 70.2339 14.7308 97 14.7308C123.766 14.7308 147.986 16.6259 165.503 19.6853C174.266 21.2158 181.327 23.0335 186.186 25.04C188.618 26.0441 190.47 27.084 191.705 28.1382C192.944 29.1957 193.5 30.2111 193.5 31.1722Z" stroke="#434343"/>
<ellipse cx="97" cy="23.7179" rx="97" ry="16.9414" fill="#D6DEFD"/>
<path d="M193.5 16.9414C193.5 17.9024 192.944 18.9179 191.705 19.9754C190.47 21.0296 188.618 22.0695 186.186 23.0736C181.327 25.08 174.266 26.8978 165.503 28.4282C147.986 31.4877 123.766 33.3828 97 33.3828C70.2339 33.3828 46.014 31.4877 28.4967 28.4282C19.7339 26.8978 12.6726 25.08 7.81358 23.0736C5.38187 22.0695 3.53047 21.0296 2.29529 19.9754C1.05634 18.9179 0.5 17.9024 0.5 16.9414C0.5 15.9804 1.05634 14.9649 2.29529 13.9074C3.53047 12.8532 5.38187 11.8133 7.81358 10.8092C12.6726 8.80276 19.7339 6.98501 28.4967 5.45456C46.014 2.39509 70.2339 0.5 97 0.5C123.766 0.5 147.986 2.39509 165.503 5.45456C174.266 6.98501 181.327 8.80276 186.186 10.8092C188.618 11.8133 190.47 12.8532 191.705 13.9074C192.944 14.9649 193.5 15.9804 193.5 16.9414Z" stroke="#434343"/>
</svg>
